<svg width="238" height="191" viewBox="0 0 238 191" fill="none" xmlns="http://www.w3.org/2000/svg">
<mask id="mask0_5_13" style="mask-type:alpha" maskUnits="userSpaceOnUse" x="0" y="46" width="153" height="139">
<path d="M22.1357 167.215C15.2021 161.453 9.85547 154.104 6.0957 145.169C2.33594 136.185 0.456055 125.906 0.456055 114.334C0.456055 102.713 2.50684 92.7764 6.6084 84.5244C10.71 76.2725 16.4229 69.3633 23.7471 63.7969C38.6885 52.3711 58.4395 46.6582 83 46.6582C106.975 46.6582 124.895 51.5898 136.76 61.4531C147.502 70.3398 152.873 82.8643 152.873 99.0264C152.873 110.306 150.383 119.876 145.402 127.737C141.252 134.231 135.588 139.212 128.41 142.679C118.986 147.171 108.439 148.221 96.7695 145.828C89.2988 144.314 84.4404 140.848 82.1943 135.428C81.0713 132.693 80.5098 129.373 80.5098 125.467V86.4287H114.421V133.23C123.405 132.01 129.68 125.76 133.244 114.48C134.611 110.281 135.295 105.228 135.295 99.3193C135.295 93.4111 134.343 88.0645 132.438 83.2793C130.534 78.4941 127.482 74.3438 123.283 70.8281C114.445 63.4551 101.018 59.7686 83 59.7686C63.5176 59.7686 47.9902 64.2852 36.418 73.3184C24.3574 82.791 18.3271 95.999 18.3271 112.942C18.3271 142.874 30.3633 161.209 54.4355 167.947C62.1504 170.096 69.7188 171.17 77.1406 171.17C84.5625 171.17 90.4951 170.975 94.9385 170.584C99.4307 170.242 103.557 169.754 107.316 169.119C121.184 166.775 131.73 162.991 138.957 157.767V174.393C132.219 177.029 126.091 178.958 120.573 180.179C108.366 182.767 95.5732 184.061 82.1943 184.061C68.8154 184.061 57.1943 182.693 47.3311 179.959C37.5166 177.225 29.1182 172.977 22.1357 167.215ZM35.6855 115.506C35.6855 111.16 36.2715 107.278 37.4434 103.86C38.6152 100.394 40.4219 97.3906 42.8633 94.8516C48.2832 89.2363 56.0225 86.4287 66.0811 86.4287H72.1602V147H67.6191C57.3652 147 49.4062 144.021 43.7422 138.064C38.3711 132.4 35.6855 124.881 35.6855 115.506Z" fill="white"/>
</mask>
<g mask="url(#mask0_5_13)">
<path d="M-22 30H289.667V192H-22V30Z" fill="url(#paint0_linear_5_13)"/>
</g>
<defs>
<linearGradient id="paint0_linear_5_13" x1="226.94" y1="207.037" x2="-17.3364" y2="206.354" gradientUnits="userSpaceOnUse">
<stop stop-color="#0F2027"/>
<stop offset="0.5" stop-color="#203A43"/>
<stop offset="1" stop-color="#2C5364"/>
</linearGradient>
</defs>
</svg>
